<svg width="54" height="54" viewBox="0 0 54 54" fill="none" xmlns="http://www.w3.org/2000/svg">
<rect width="54" height="54" rx="5" fill="#3F322C"/>
<g clip-path="url(#clip0_69_44)">
<path d="M27.0302 36.2075C26.8828 36.3548 26.7028 36.4285 26.49 36.4285C26.2772 36.4285 26.0971 36.3548 25.9498 36.2075L18.2891 28.8169C18.2073 28.7514 18.0947 28.645 17.9515 28.4977C17.8083 28.3503 17.5811 28.0823 17.2701 27.6935C16.9591 27.3048 16.6808 26.9058 16.4353 26.4965C16.1898 26.0873 15.9708 25.5922 15.7785 25.0111C15.5862 24.43 15.49 23.8652 15.49 23.3169C15.49 21.5163 16.0097 20.1085 17.0491 19.0936C18.0886 18.0788 19.525 17.5713 21.3583 17.5713C21.8657 17.5713 22.3834 17.6593 22.9113 17.8353C23.4392 18.0112 23.9303 18.2486 24.3845 18.5473C24.8388 18.8461 25.2296 19.1264 25.557 19.3883C25.8843 19.6502 26.1953 19.9285 26.49 20.2231C26.7846 19.9285 27.0956 19.6502 27.423 19.3883C27.7504 19.1264 28.1412 18.8461 28.5955 18.5473C29.0497 18.2486 29.5408 18.0112 30.0687 17.8353C30.5966 17.6593 31.1142 17.5713 31.6217 17.5713C33.455 17.5713 34.8914 18.0788 35.9308 19.0936C36.9703 20.1085 37.49 21.5163 37.49 23.3169C37.49 25.1256 36.5529 26.9672 34.6786 28.8414L27.0302 36.2075Z" fill="white"/>
</g>
<defs>
<clipPath id="clip0_69_44">
<rect width="22.02" height="22" fill="white" transform="matrix(1 0 0 -1 15.48 38)"/>
</clipPath>
</defs>
</svg>
