<svg width="54" height="54" viewBox="0 0 54 54" fill="none" xmlns="http://www.w3.org/2000/svg">
<rect width="54" height="54" rx="5" fill="#3F322C"/>
<g clip-path="url(#clip0_69_39)">
<path d="M35.9186 27.7857C34.6745 25.8542 33.1154 24.4096 31.2411 23.452C31.7404 24.3032 31.99 25.224 31.99 26.2143C31.99 27.7285 31.4519 29.0237 30.3756 30.0999C29.2993 31.1762 28.0041 31.7143 26.49 31.7143C24.9759 31.7143 23.6807 31.1762 22.6044 30.0999C21.5281 29.0237 20.99 27.7285 20.99 26.2143C20.99 25.224 21.2396 24.3032 21.7389 23.452C19.8646 24.4096 18.3055 25.8542 17.0614 27.7857C18.15 29.4636 19.5147 30.7997 21.1557 31.7941C22.7967 32.7885 24.5748 33.2857 26.49 33.2857C28.4052 33.2857 30.1833 32.7885 31.8243 31.7941C33.4653 30.7997 34.83 29.4636 35.9186 27.7857ZM26.9074 23.4889C26.9074 23.4889 26.936 23.4602 26.9933 23.4029C27.0506 23.3456 27.0793 23.2352 27.0793 23.0715C27.0793 22.9078 27.022 22.7686 26.9074 22.6541C26.7928 22.5395 26.6537 22.4822 26.49 22.4822C25.4669 22.4822 24.5891 22.8484 23.8566 23.581C23.1241 24.3135 22.7578 25.1913 22.7578 26.2143C22.7578 26.378 22.8151 26.5171 22.9297 26.6317C23.0443 26.7463 23.1834 26.8036 23.3471 26.8036C23.5108 26.8036 23.65 26.7463 23.7645 26.6317C23.8791 26.5171 23.9364 26.378 23.9364 26.2143C23.9364 25.5105 24.186 24.9089 24.6853 24.4096C25.1846 23.9104 25.7861 23.6607 26.49 23.6607C26.6537 23.6607 26.7928 23.6035 26.9074 23.4889ZM37.2445 26.9387C37.4081 27.2251 37.49 27.5075 37.49 27.7857C37.49 28.064 37.4081 28.3464 37.2445 28.6328C36.0986 30.5153 34.5579 32.0233 32.6222 33.1568C30.6866 34.2904 28.6425 34.8572 26.49 34.8572C24.3375 34.8572 22.2934 34.2884 20.3577 33.1507C18.4221 32.0131 16.8814 30.5071 15.7355 28.6328C15.5718 28.3464 15.49 28.064 15.49 27.7857C15.49 27.5075 15.5718 27.2251 15.7355 26.9387C16.8814 25.0644 18.4221 23.5584 20.3577 22.4208C22.2934 21.2831 24.3375 20.7143 26.49 20.7143C28.6425 20.7143 30.6866 21.2831 32.6222 22.4208C34.5579 23.5584 36.0986 25.0644 37.2445 26.9387Z" fill="white"/>
</g>
<defs>
<clipPath id="clip0_69_39">
<rect width="22.02" height="22" fill="white" transform="matrix(1 0 0 -1 15.48 38)"/>
</clipPath>
</defs>
</svg>
