<svg width="54" height="54" viewBox="0 0 54 54" fill="none" xmlns="http://www.w3.org/2000/svg">
<rect width="54" height="54" rx="5" fill="#3F322C"/>
<g clip-path="url(#clip0_69_34)">
<path d="M33.6206 22.3349C33.6206 22.3349 33.6779 22.2776 33.7924 22.163C33.907 22.0484 33.9643 21.8274 33.9643 21.5C33.9643 21.1727 33.8497 20.8944 33.6206 20.6652C33.3914 20.436 33.1131 20.3215 32.7857 20.3215C32.4584 20.3215 32.1801 20.436 31.9509 20.6652C31.7218 20.8944 31.6072 21.1727 31.6072 21.5C31.6072 21.8274 31.7218 22.1057 31.9509 22.3349C32.1801 22.564 32.4584 22.6786 32.7857 22.6786C33.1131 22.6786 33.3914 22.564 33.6206 22.3349ZM36.7143 17.9643C36.7143 20.0023 36.4053 21.764 35.7874 23.2495C35.1695 24.735 34.1321 26.2102 32.6753 27.6753C32.0123 28.33 31.2143 29.0503 30.2813 29.836L30.0357 34.4889C30.0194 34.6198 29.9539 34.7262 29.8393 34.8081L25.125 37.5581C25.0677 37.5908 25.0023 37.6072 24.9286 37.6072C24.8304 37.6072 24.7363 37.5703 24.6462 37.4967L23.8605 36.711C23.7541 36.5964 23.7214 36.4654 23.7623 36.3181L24.8058 32.9297L21.3561 29.4799L17.9677 30.5235C17.9431 30.5317 17.9063 30.5357 17.8572 30.5357C17.7426 30.5357 17.6485 30.4989 17.5748 30.4253L16.7891 29.6395C16.65 29.484 16.6295 29.3244 16.7277 29.1607L19.4777 24.4465C19.5596 24.3319 19.666 24.2664 19.7969 24.25L24.4498 24.0045C25.2355 23.0715 25.9558 22.2735 26.6105 21.6105C28.1492 20.08 29.6142 19.0242 31.0056 18.4431C32.397 17.862 34.1607 17.5715 36.2969 17.5715C36.4115 17.5715 36.5097 17.6103 36.5915 17.6881C36.6734 17.7658 36.7143 17.8579 36.7143 17.9643Z" fill="white"/>
</g>
<defs>
<clipPath id="clip0_69_34">
<rect width="20.44" height="22" fill="white" transform="matrix(1 0 0 -1 16.28 38)"/>
</clipPath>
</defs>
</svg>
